<svg xmlns="http://www.w3.org/2000/svg" width="304" height="306" viewBox="0 0 304 306">
<g>
<path d="M 250.50 290.65 C241.92,287.82 237.13,284.27 222.49,269.89 C214.15,261.70 206.87,255.00 206.31,255.00 C205.75,255.00 200.96,257.02 195.67,259.50 C167.47,272.67 134.99,274.43 105.02,264.41 C84.64,257.59 69.77,248.69 55.15,234.57 C36.23,216.28 24.19,194.58 18.37,168.27 C15.95,157.34 15.98,131.60 18.43,120.04 C23.74,94.92 35.12,73.15 52.20,55.43 C76.40,30.33 108.51,16.73 143.50,16.76 C184.16,16.80 220.79,35.15 245.61,67.91 C253.83,78.75 263.19,97.62 266.49,110.00 C269.89,122.74 271.24,139.86 270.01,154.75 C268.68,170.95 264.66,185.45 257.39,200.27 L 254.64 205.88 L 270.19 221.19 C288.71,239.43 291.12,243.25 291.77,255.50 C292.32,265.86 289.86,272.80 282.97,280.34 C274.78,289.30 260.33,293.89 250.50,290.65 ZM 126.50 255.48 C146.13,259.10 172.92,254.95 192.50,245.25 C241.43,221.01 266.49,166.68 252.80,114.50 C242.00,73.33 209.89,42.53 167.71,32.88 C154.28,29.81 133.17,29.85 119.50,32.98 C108.30,35.55 93.37,41.33 85.23,46.24 C42.22,72.20 21.51,123.08 34.01,172.04 C39.95,195.32 56.03,219.10 75.95,234.06 C89.31,244.10 108.19,252.10 126.50,255.48 ZM 154.29 173.99 C139.56,179.50 123.65,172.88 115.86,158.00 C112.54,151.67 112.51,137.55 115.79,131.28 C123.47,116.65 141.43,110.04 155.89,116.53 C162.08,119.31 168.49,125.17 171.32,130.66 C172.14,132.24 173.26,136.01 173.81,139.02 C176.54,153.97 168.28,168.76 154.29,173.99 ZM 131.55 201.55 C128.71,204.38 125.23,204.60 117.25,202.45 C98.45,197.39 86.00,181.35 86.00,162.18 C86.00,155.37 82.75,151.39 76.44,150.44 C73.37,149.98 71.34,148.98 69.98,147.25 C66.11,142.32 68.28,138.53 76.16,136.47 C83.83,134.46 85.57,132.02 86.25,122.37 C86.55,118.04 87.69,112.15 88.79,109.28 C94.48,94.39 107.98,84.43 123.37,83.77 C130.83,83.46 134.00,85.36 134.00,90.15 C134.00,94.27 131.11,96.60 124.98,97.41 C109.27,99.49 101.46,108.11 100.04,124.95 C99.35,133.16 96.69,140.84 93.95,142.53 C93.21,142.99 93.33,143.72 94.31,144.85 C97.61,148.61 99.36,153.89 100.05,162.06 C100.89,172.13 103.04,177.00 109.04,182.42 C114.13,187.02 118.10,188.76 125.47,189.63 C129.53,190.10 131.49,190.86 132.54,192.37 C134.69,195.43 134.32,198.77 131.55,201.55 ZM 176.72 200.01 C173.30,201.60 167.80,203.19 164.50,203.54 C159.27,204.11 158.14,203.91 155.75,202.02 C153.75,200.45 153.00,198.96 153.00,196.58 C153.00,192.16 155.36,190.39 162.32,189.62 C169.39,188.83 174.29,186.42 179.20,181.33 C184.16,176.20 185.92,171.57 186.88,161.17 C187.70,152.27 188.75,149.15 192.20,145.36 C193.50,143.93 193.78,142.98 193.06,142.53 C190.25,140.80 187.27,132.25 186.67,124.26 C186.06,115.95 184.71,112.11 180.40,106.34 C176.83,101.57 171.80,98.97 163.29,97.49 C155.06,96.06 152.99,94.57 153.02,90.06 C153.05,84.51 156.82,82.80 166.41,83.99 C185.75,86.39 198.85,101.29 200.70,122.99 C201.46,131.96 203.98,135.31 210.82,136.47 C216.08,137.36 218.00,139.22 218.00,143.42 C218.00,147.42 215.76,149.60 210.68,150.54 C208.58,150.93 205.54,152.36 203.93,153.71 C201.53,155.73 201.00,156.95 201.00,160.45 C201.00,177.91 191.69,193.08 176.72,200.01 ZM 136.24 170.29 C143.02,172.29 144.59,172.31 150.65,170.51 C158.36,168.22 163.30,164.08 166.88,156.92 C173.52,143.64 168.99,128.59 156.32,121.82 C149.95,118.41 145.04,117.64 138.44,119.01 C130.28,120.71 124.16,125.42 120.15,133.09 C117.11,138.90 116.84,140.11 117.25,146.00 C117.52,149.84 118.56,154.19 119.81,156.63 C122.80,162.49 129.96,168.44 136.24,170.29 ZM 266.30 275.65 C270.44,273.92 275.44,268.22 277.02,263.45 C278.73,258.26 277.62,250.50 274.53,246.05 C273.15,244.05 266.36,236.82 259.45,229.99 L 246.89 217.57 L 244.27 221.04 C240.91,225.48 224.26,242.17 221.02,244.35 L 218.54 246.01 L 232.02 259.58 C239.43,267.04 247.07,273.99 249.00,275.03 C253.18,277.28 261.66,277.59 266.30,275.65 ZM 132.23 159.00 C131.05,160.89 128.00,161.82 128.00,160.30 C128.00,159.91 129.36,158.19 131.03,156.47 C133.02,154.42 133.85,152.76 133.43,151.67 C132.56,149.41 129.71,149.56 127.52,151.98 C126.54,153.06 125.31,153.69 124.78,153.37 C123.44,152.53 129.00,147.00 131.19,147.00 C133.93,147.00 133.34,143.89 129.97,140.58 C128.34,138.98 127.00,137.29 127.00,136.83 C127.00,135.39 128.62,135.93 130.50,138.00 C132.10,139.77 133.58,140.00 143.50,140.00 C153.42,140.00 154.90,139.77 156.50,138.00 C158.36,135.95 161.00,135.30 161.00,136.90 C161.00,137.39 159.43,139.18 157.50,140.87 C153.37,144.49 152.93,147.00 156.43,147.00 C157.85,147.00 159.70,148.08 160.91,149.62 C163.53,152.95 162.51,154.83 159.58,152.08 C154.21,147.03 151.74,151.39 156.88,156.84 C160.55,160.73 159.45,162.71 155.61,159.11 C152.85,156.51 152.44,156.50 149.27,159.00 C147.87,160.10 145.28,161.00 143.50,161.00 C141.72,161.00 139.13,160.10 137.73,159.00 C136.33,157.90 134.80,157.00 134.33,157.00 C133.86,157.00 132.92,157.90 132.23,159.00 ZM 152.00 136.43 C152.00,137.73 150.55,138.00 143.50,138.00 C134.44,138.00 133.60,137.44 136.48,133.33 C137.79,131.46 137.79,131.07 136.48,129.98 C134.99,128.74 134.43,126.00 135.67,126.00 C136.04,126.00 137.05,126.64 137.92,127.41 C140.33,129.57 146.52,129.74 148.76,127.72 C152.17,124.63 154.41,125.78 151.42,129.09 C150.20,130.44 150.09,131.29 150.92,132.85 C151.51,133.96 152.00,135.57 152.00,136.43 ZM 145.65 146.53 C145.96,147.34 146.84,148.00 147.61,148.00 C149.21,148.00 149.50,145.42 148.00,144.50 C146.50,143.57 145.01,144.86 145.65,146.53 Z" fill="rgba(0,0,0,1)"/>
<path d="M 126.50 255.48 C108.19,252.10 89.31,244.10 75.95,234.06 C56.03,219.10 39.95,195.32 34.01,172.04 C21.51,123.08 42.22,72.20 85.23,46.24 C93.37,41.33 108.30,35.55 119.50,32.98 C133.17,29.85 154.28,29.81 167.71,32.88 C209.89,42.53 242.00,73.33 252.80,114.50 C266.49,166.68 241.43,221.01 192.50,245.25 C172.92,254.95 146.13,259.10 126.50,255.48 ZM 154.29 173.99 C168.28,168.76 176.54,153.97 173.81,139.02 C173.26,136.01 172.14,132.24 171.32,130.66 C168.49,125.17 162.08,119.31 155.89,116.53 C141.43,110.04 123.47,116.65 115.79,131.28 C112.51,137.55 112.54,151.67 115.86,158.00 C123.65,172.88 139.56,179.50 154.29,173.99 ZM 131.55 201.55 C134.32,198.77 134.69,195.43 132.54,192.37 C131.49,190.86 129.53,190.10 125.47,189.63 C118.10,188.76 114.13,187.02 109.04,182.42 C103.04,177.00 100.89,172.13 100.05,162.06 C99.36,153.89 97.61,148.61 94.31,144.85 C93.33,143.72 93.21,142.99 93.95,142.53 C96.69,140.84 99.35,133.16 100.04,124.95 C101.46,108.11 109.27,99.49 124.98,97.41 C131.11,96.60 134.00,94.27 134.00,90.15 C134.00,85.36 130.83,83.46 123.37,83.77 C107.98,84.43 94.48,94.39 88.79,109.28 C87.69,112.15 86.55,118.04 86.25,122.37 C85.57,132.02 83.83,134.46 76.16,136.47 C68.28,138.53 66.11,142.32 69.98,147.25 C71.34,148.98 73.37,149.98 76.44,150.44 C82.75,151.39 86.00,155.37 86.00,162.18 C86.00,181.35 98.45,197.39 117.25,202.45 C125.23,204.60 128.71,204.38 131.55,201.55 ZM 176.72 200.01 C191.69,193.08 201.00,177.91 201.00,160.45 C201.00,156.95 201.53,155.73 203.93,153.71 C205.54,152.36 208.58,150.93 210.68,150.54 C215.76,149.60 218.00,147.42 218.00,143.42 C218.00,139.22 216.08,137.36 210.82,136.47 C203.98,135.31 201.46,131.96 200.70,122.99 C198.85,101.29 185.75,86.39 166.41,83.99 C156.82,82.80 153.05,84.51 153.02,90.06 C152.99,94.57 155.06,96.06 163.29,97.49 C171.80,98.97 176.83,101.57 180.40,106.34 C184.71,112.11 186.06,115.95 186.67,124.26 C187.27,132.25 190.25,140.80 193.06,142.53 C193.78,142.98 193.50,143.93 192.20,145.36 C188.75,149.15 187.70,152.27 186.88,161.17 C185.92,171.57 184.16,176.20 179.20,181.33 C174.29,186.42 169.39,188.83 162.32,189.62 C155.36,190.39 153.00,192.16 153.00,196.58 C153.00,198.96 153.75,200.45 155.75,202.02 C158.14,203.91 159.27,204.11 164.50,203.54 C167.80,203.19 173.30,201.60 176.72,200.01 Z" fill="rgba(202,225,205,1)"/>
<path d="M 136.24 170.29 C129.96,168.44 122.80,162.49 119.81,156.63 C118.56,154.19 117.52,149.84 117.25,146.00 C116.84,140.11 117.11,138.90 120.15,133.09 C124.16,125.42 130.28,120.71 138.44,119.01 C145.04,117.64 149.95,118.41 156.32,121.82 C168.99,128.59 173.52,143.64 166.88,156.92 C163.30,164.08 158.36,168.22 150.65,170.51 C144.59,172.31 143.02,172.29 136.24,170.29 ZM 132.23 159.00 C132.92,157.90 133.86,157.00 134.33,157.00 C134.80,157.00 136.33,157.90 137.73,159.00 C139.13,160.10 141.72,161.00 143.50,161.00 C145.28,161.00 147.87,160.10 149.27,159.00 C152.44,156.50 152.85,156.51 155.61,159.11 C159.45,162.71 160.55,160.73 156.88,156.84 C151.74,151.39 154.21,147.03 159.58,152.08 C162.51,154.83 163.53,152.95 160.91,149.62 C159.70,148.08 157.85,147.00 156.43,147.00 C152.93,147.00 153.37,144.49 157.50,140.87 C159.43,139.18 161.00,137.39 161.00,136.90 C161.00,135.30 158.36,135.95 156.50,138.00 C154.90,139.77 153.42,140.00 143.50,140.00 C133.58,140.00 132.10,139.77 130.50,138.00 C128.62,135.93 127.00,135.39 127.00,136.83 C127.00,137.29 128.34,138.98 129.97,140.58 C133.34,143.89 133.93,147.00 131.19,147.00 C129.00,147.00 123.44,152.53 124.78,153.37 C125.31,153.69 126.54,153.06 127.52,151.98 C129.71,149.56 132.56,149.41 133.43,151.67 C133.85,152.76 133.02,154.42 131.03,156.47 C129.36,158.19 128.00,159.91 128.00,160.30 C128.00,161.82 131.05,160.89 132.23,159.00 ZM 152.00 136.43 C152.00,135.57 151.51,133.96 150.92,132.85 C150.09,131.29 150.20,130.44 151.42,129.09 C154.41,125.78 152.17,124.63 148.76,127.72 C146.52,129.74 140.33,129.57 137.92,127.41 C137.05,126.64 136.04,126.00 135.67,126.00 C134.43,126.00 134.99,128.74 136.48,129.98 C137.79,131.07 137.79,131.46 136.48,133.33 C133.60,137.44 134.44,138.00 143.50,138.00 C150.55,138.00 152.00,137.73 152.00,136.43 ZM 145.65 146.53 C145.01,144.86 146.50,143.57 148.00,144.50 C149.50,145.42 149.21,148.00 147.61,148.00 C146.84,148.00 145.96,147.34 145.65,146.53 Z" fill="rgba(230,103,99,1)"/>
</g>
</svg>